<?xml version="1.0" encoding="UTF-8" standalone="no"?>
<svg
   xmlns:dc="http://purl.org/dc/elements/1.1/"
   xmlns:cc="http://creativecommons.org/ns#"
   xmlns:rdf="http://www.w3.org/1999/02/22-rdf-syntax-ns#"
   xmlns:svg="http://www.w3.org/2000/svg"
   xmlns="http://www.w3.org/2000/svg"
   xmlns:sodipodi="http://sodipodi.sourceforge.net/DTD/sodipodi-0.dtd"
   xmlns:inkscape="http://www.inkscape.org/namespaces/inkscape"
   height="1280"
   width="2223"
   viewBox="0 0 2222.9999 1280.0001"
   id="svg2"
   version="1.1"
   class="glasses"
   inkscape:version="0.91 r13725"
   sodipodi:docname="glasses-sized.svg">
  <sodipodi:namedview
     pagecolor="#ffffff"
     bordercolor="#666666"
     borderopacity="1"
     objecttolerance="10"
     gridtolerance="10"
     guidetolerance="10"
     inkscape:pageopacity="0"
     inkscape:pageshadow="2"
     inkscape:window-width="968"
     inkscape:window-height="643"
     id="namedview7"
     showgrid="false"
     inkscape:zoom="0.27890238"
     inkscape:cx="1229.821"
     inkscape:cy="640"
     inkscape:window-x="0"
     inkscape:window-y="0"
     inkscape:window-maximized="0"
     inkscape:current-layer="svg2" />
  <metadata
     id="metadata9">
    <rdf:RDF>
      <cc:Work
         rdf:about="">
        <dc:format>image/svg+xml</dc:format>
        <dc:type
           rdf:resource="http://purl.org/dc/dcmitype/StillImage" />
        <dc:title></dc:title>
      </cc:Work>
    </rdf:RDF>
  </metadata>
    <g
     id="layer1"
     transform="matrix(1.8308575,0,0,1.7895645,1294.9104,-1280.746)">
    <path
       style="fill:none;fill-rule:evenodd;stroke:#ec20b0;stroke-width:6;stroke-linecap:butt;stroke-linejoin:miter;stroke-miterlimit:4;stroke-opacity:1"
       d="m 65.714285,922.36221 c -11.83126,-1.97664 -22.19126,5.01395 -30.83941,12.20451 -6.64021,8.61603 -15.85119,15.99269 -19.19604,26.60498 -4.42907,12.50312 -4.09666,26.69897 0.74974,39.0476 5.80183,6.5953 8.53224,14.5925 14.38923,21.7206 8.81815,10.732 26.13928,12.9311 40.09952,15.3319 12.12028,2.3614 22.758,-3.9646 32.979645,-9.4031 9.39694,-5.7414 15.34389,-15.3338 22.39797,-23.5597 6.50386,-10.0876 4.55341,-25.10957 0.69994,-36.12469 -5.99714,-13.16924 -14.57834,-24.97436 -25.54013,-34.43916 -9.240865,-8.67185 -21.280315,-14.51337 -34.464925,-14.24008 -16.45422,0.34106 -26.85562,14.30838 -34.69039,26.59547 -7.36517,10.30095 -12.79294,22.27262 -12.25243,35.50757 0.42419,10.38665 -1.68826,21.20439 0.15842,31.38419 2.04737,8.7653 7.4104,16.5759 16.38777,19.7751 18.5966,6.627 40.48943,9.4179 57.82469,-1.6177 13.402515,-7.7029 22.319355,-20.8707 31.296395,-33.0732 7.08197,-10.12275 2.51685,-25.29158 11.4544,-32.51362 9.37314,-7.57403 24.01817,-7.95669 35.86036,-4.58583 6.24189,7.74107 11.9235,3.35488 10.86414,-5.84489 -0.52874,-10.53938 6.96863,-17.65842 15.0356,-22.92078 9.98559,-6.39323 21.84551,-9.82288 33.55818,-11.10259 11.49222,-1.25562 24.55427,-3.71636 34.50207,3.52646 7.085,11.08055 16.39312,20.79787 21.87325,32.71675 3.82524,8.31961 8.7607,16.75956 7.39631,26.4562 -1.28365,10.18867 -8.78476,17.5724 -12.24068,26.9173 -5.04463,9.5273 -12.84433,18.7379 -24.56071,19.0416 -12.56173,1.7093 -25.92023,3.9406 -38.16516,0.4866 -10.04876,-2.8345 -20.2814,-8.3166 -26.49468,-16.7075 -7.36431,-9.9454 -9.97709,-23.13315 -9.77995,-35.81394 -0.34345,-11.18024 -0.82612,-22.82001 5.86648,-32.48258 6.4261,-11.43966 19.81294,-15.73438 29.52468,-23.3558 11.55925,-4.03325 24.1796,-3.0981 36.25726,-2.93209 10.05565,1.21051 14.46978,11.91125 22.02485,17.50495 8.47956,5.0986 14.06313,13.61546 17.19177,22.52862 2.58596,7.36712 0.20463,15.64529 0.54613,23.417 1.25916,9.55706 -3.29138,18.34364 -7.85715,26.37844 -6.27705,11.0463 -12.08134,23.9673 -25.40242,28.0295 -9.66521,3.2616 -20.02867,4.5024 -30.18175,4.2008 -10.92738,-0.3247 -22.80077,0.568 -32.15779,-6.4416 -9.39177,-5.2664 -15.1497,-15.2352 -18.77913,-25.0074 -4.97839,-13.4043 -4.33461,-28.52386 -2.87711,-42.80023 2.47671,-10.95517 7.41476,-21.76525 15.29743,-29.82068 l 1.95792,-1.01755"
       id="path4163"
       class="path"
       inkscape:connector-curvature="0" />
  </g>
</svg>
