<svg version="1.1" id="Layer_1" xmlns="http://www.w3.org/2000/svg" xmlns:xlink="http://www.w3.org/1999/xlink" x="0px" y="0px"
     width="140px" height="333px" viewBox="0 0 340 333" enable-background="new 0 0 340 333" xml:space="preserve">
<defs>
    <style type="text/css"><![CDATA[
        .path {
          stroke-dasharray: 1000;
          stroke-dashoffset: 1000;
          animation: dash 5s linear alternate infinite;
        }

        @keyframes dash {
          from {
            stroke-dashoffset: 1000;
          }
          to {
            stroke-dashoffset: 0;
          }
        }
    ]]></style>
  </defs>
<path class='path' d="m182,149c0,1 0,4 0,6c0,2 0,4 0,5c0,1 -1,1 -1,2c0,1 3.41885,0.58115 5,-1c3.16228,-3.16228 4.23174,-8.92767 6,-15c2.30554,-7.91736 4.34315,-14.87605 6,-20c1.26855,-3.92311 3,-7 5,-9c1,-1 1,-2 2,-2c0,0 0.31075,2.08025 1,5c1.02748,4.3525 3.37669,8.88731 5,15c1.30876,4.92821 1.5876,10.01704 2,15c0.50171,6.06204 0.69255,8.186 2,10c0.8269,1.14726 2,1 4,1c3,0 5.25801,-3.90436 7,-9c2.35495,-6.8887 3.82462,-15.06134 6,-21c1.85226,-5.05659 4.70546,-10.34619 7,-12c1.814,-1.30745 3.02675,-2.22975 4,-2c2.17625,0.51374 3.09544,4.97734 4,9c1.11867,4.97479 1.53374,10.0966 3,16c0.76227,3.06903 3,6 4,8l3,2" id="svg_1" stroke-width="5" stroke="#000000" fill="none"/>
</svg>
